#!OML:ASF H:\LiuWeirdWalks\Patient Classification 1\Patient 1\Session 1\male.ASF
:FULLY-SPECIFIED
:DEGREES
403
root 1.34534 17.5369 1.94039 0.307947 3.48544 -4.4608
lowerback 4.85859 11.8341 7.85573
upperback -0.477062 16.2219 0.252551
thorax -1.10553 8.04117 -4.55167
lowerneck -12.2911 -6.75942 -2.25113
upperneck 17.1586 -8.53851 -1.23633
head 7.33173 -4.32757 -0.877409
rclavicle 1.94343e-014 3.67752e-015
rhumerus 1.92805 -4.29204 -67.4738
rradius 51.4591
rwrist -21.6669
rhand -18.3993 7.20416
rfingers 7.12502
rthumb 7.88493 -22.6288
lclavicle 1.94343e-014 3.67752e-015
lhumerus -48.9371 19.4933 31.7559
lradius 47.7486
lwrist 14.0718
lhand -19.2389 0.513267
lfingers 7.12502
lthumb 7.07457 30.375
rfemur 18.0879 -2.42166 26.1396
rtibia 22.9848
rfoot -2.97036 -26.2707
rtoes -2.4316
lfemur -30.9095 -1.96242 -13.2442
ltibia 31.9965
lfoot -2.0914 5.34169
ltoes -19.7347
404
root 1.38211 17.5432 2.10761 0.26139 3.95817 -4.23087
lowerback 4.90461 11.8739 7.78793
upperback -0.40231 16.2693 0.154901
thorax -1.03566 8.0712 -4.61273
lowerneck -12.3305 -6.99658 -2.49902
upperneck 17.1307 -8.85363 -1.02031
head 7.35333 -4.47382 -0.802727
rclavicle 2.76537e-013 5.06901e-015
rhumerus 2.71387 -4.951 -67.6956
rradius 50.9348
rwrist -21.8707
rhand -18.7051 7.1471
rfingers 7.12502
rthumb 7.58984 -22.6967
lclavicle 2.76537e-013 5.06901e-015
lhumerus -49.6331 19.7759 30.8431
lradius 47.8364
lwrist 14.1702
lhand -19.2532 0.560719
lfingers 7.12502
lthumb 7.06076 30.4229
rfemur 17.7378 -3.46498 25.7206
rtibia 24.4234
rfoot -2.30561 -26.6115
rtoes -1.69491
lfemur -30.7548 -1.5336 -13.9403
ltibia 32.7721
lfoot -2.49123 4.76282
ltoes -18.669
405
root 1.42011 17.551 2.27352 0.206566 4.45977 -4.10379
lowerback 4.93471 11.8981 7.83525
upperback -0.323259 16.3014 0.103788
thorax -0.937349 8.09383 -4.67781
lowerneck -12.3788 -7.2386 -2.766
upperneck 17.1367 -9.16956 -0.813396
head 7.38965 -4.62205 -0.729949
rclavicle 1.42504e-014 -1.17283e-014
rhumerus 3.45025 -5.5812 -67.883
rradius 50.4163
rwrist -22.064
rhand -19.0235 7.06486
rfingers 7.12502
rthumb 7.28249 -22.7898
lclavicle 1.42504e-014 -1.17283e-014
lhumerus -50.2586 20.0529 30.089
lradius 47.907
lwrist 14.1887
lhand -19.2152 0.619847
lfingers 7.12502
lthumb 7.09747 30.4808
rfemur 17.3948 -4.52931 25.4023
rtibia 25.785
rfoot -1.48342 -26.9668
rtoes -1.00918
lfemur -30.5754 -1.27426 -14.4745
ltibia 33.5144
lfoot -2.92439 4.35347
ltoes -17.6134
406
root 1.45928 17.5606 2.43808 0.147564 4.9437 -4.05497
lowerback 4.95876 11.9275 7.96622
upperback -0.255548 16.3458 0.0880055
thorax -0.833794 8.12174 -4.74709
lowerneck -12.382 -7.47941 -2.99217
upperneck 17.1058 -9.48073 -0.67121
head 7.40202 -4.77178 -0.681313
rclavicle -8.49432e-014 5.06901e-015
rhumerus 4.10443 -6.19132 -68.034
rradius 49.9116
rwrist -22.2419
rhand -19.3266 6.95458
rfingers 7.12502
rthumb 6.9899 -22.91
lclavicle -8.49432e-014 5.06901e-015
lhumerus -50.8057 20.2825 29.5028
lradius 47.9819
lwrist 14.2106
lhand -19.1241 0.704226
lfingers 7.12502
lthumb 7.18531 30.5622
rfemur 17.0506 -5.55472 25.1604
rtibia 27.0798
rfoot -0.52375 -27.3522
rtoes -0.311492
lfemur -30.3536 -1.16552 -14.868
ltibia 34.1887
lfoot -3.30304 4.15726
ltoes -16.524
407
root 1.49914 17.572 2.60154 0.0837885 5.3982 -4.05755
lowerback 4.97429 11.9577 8.13199
upperback -0.199384 16.3936 0.109896
thorax -0.738739 8.15029 -4.79557
lowerneck -12.3163 -7.71435 -3.17968
upperneck 17.0246 -9.77699 -0.615049
head 7.38022 -4.92064 -0.660436
rclavicle -1.77918e-013 -1.19271e-015
rhumerus 4.69002 -6.74812 -68.1503
rradius 49.4105
rwrist -22.4048
rhand -19.5761 6.83666
rfingers 7.12502
rthumb 6.74906 -23.0358
lclavicle -1.77918e-013 -1.19271e-015
lhumerus -51.3186 20.4853 29.0629
lradius 48.0678
lwrist 14.2182
lhand -19.0263 0.79516
lfingers 7.12502
lthumb 7.27973 30.6499
rfemur 16.7136 -6.5228 24.9674
rtibia 28.3117
rfoot 0.564646 -27.7619
rtoes 0.631089
lfemur -30.0759 -1.16837 -15.1617
ltibia 34.7762
lfoot -3.63985 4.12923
ltoes -15.416
408
root 1.53931 17.586 2.76465 0.0241198 5.80538 -4.05437
lowerback 4.99127 11.9908 8.27662
upperback -0.163062 16.4455 0.14132
thorax -0.673049 8.17912 -4.82824
lowerneck -12.2156 -7.93619 -3.29461
upperneck 16.9357 -10.0528 -0.655259
head 7.34103 -5.06438 -0.677295
rclavicle -1.50082e-014 2.38542e-015
rhumerus 5.21309 -7.24169 -68.2527
rradius 48.8996
rwrist -22.5658
rhand -19.7506 6.73144
rfingers 7.12502
rthumb 6.58057 -23.1463
lclavicle -1.50082e-014 2.38542e-015
lhumerus -51.7998 20.6532 28.7423
lradius 48.1666
lwrist 14.2159
lhand -18.9281 0.870891
lfingers 7.12502
lthumb 7.37456 30.7224
rfemur 16.3779 -7.42586 24.7557
rtibia 29.4948
rfoot 1.75686 -28.1891
rtoes 1.76997
lfemur -29.7284 -1.23567 -15.432
ltibia 35.2592
lfoot -3.95314 4.20917
ltoes -14.3698
409
root 1.57967 17.6022 2.92782 -0.0457195 6.15069 -4.05773
lowerback 5.01053 12.0249 8.40755
upperback -0.139633 16.4992 0.190922
thorax -0.630833 8.20731 -4.83951
lowerneck -12.077 -8.14258 -3.37825
upperneck 16.8509 -10.3073 -0.738156
head 7.29241 -5.20007 -0.708296
rclavicle -1.56537e-013 -9.93923e-016
rhumerus 5.68529 -7.6562 -68.3418
rradius 48.3749
rwrist -22.7075
rhand -19.8442 6.63967
rfingers 7.12502
rthumb 6.49018 -23.2409
lclavicle -1.56537e-013 -9.93923e-016
lhumerus -52.2684 20.7951 28.5294
lradius 48.2719
lwrist 14.2171
lhand -18.846 0.884145
lfingers 7.12502
lthumb 7.45376 30.7328
rfemur 16.0648 -8.24714 24.5388
rtibia 30.6355
rfoot 3.01551 -28.6473
rtoes 3.12438
lfemur -29.2947 -1.33055 -15.6722
ltibia 35.6369
lfoot -4.27876 4.36224
ltoes -13.3948
410
root 1.62055 17.621 3.09108 -0.099467 6.46026 -3.99237
lowerback 4.9919 12.0514 8.44824
upperback -0.116564 16.5342 0.236573
thorax -0.594206 8.22646 -4.80504
lowerneck -11.9727 -8.33155 -3.45904
upperneck 16.8529 -10.5392 -0.816302
head 7.27799 -5.32349 -0.739702
rclavicle -6.15736e-014 -2.38542e-015
rhumerus 6.129 -7.98107 -68.4243
rradius 47.8335
rwrist -22.8069
rhand -19.8621 6.57879
rfingers 7.12502
rthumb 6.47294 -23.3023
lclavicle -6.15736e-014 -2.38542e-015
lhumerus -52.7347 20.9398 28.4097
lradius 48.3862
lwrist 14.2194
lhand -18.8019 0.844843
lfingers 7.12502
lthumb 7.49634 30.692
rfemur 15.7569 -9.02489 24.2218
rtibia 31.7455
rfoot 4.32738 -29.1102
rtoes 4.5373
lfemur -28.7916 -1.44277 -15.9781
ltibia 35.9058
lfoot -4.60928 4.5785
ltoes -12.495
411
root 1.66072 17.6416 3.25385 -0.146361 6.72559 -3.89591
lowerback 4.96591 12.0704 8.43425
upperback -0.104107 16.5563 0.281751
thorax -0.581246 8.23808 -4.74648
lowerneck -11.8985 -8.49962 -3.52978
upperneck 16.9405 -10.7487 -0.87062
head 7.29735 -5.43266 -0.766712
rclavicle 1.93411e-013 -7.7526e-015
rhumerus 6.53154 -8.22525 -68.5081
rradius 47.2793
rwrist -22.8177
rhand -19.7886 6.54593
rfingers 7.12502
rthumb 6.5439 -23.333
lclavicle 1.93411e-013 -7.7526e-015
lhumerus -53.1965 21.0882 28.3699
lradius 48.4989
lwrist 14.2082
lhand -18.7891 0.708695
lfingers 7.12502
lthumb 7.50868 30.5554
rfemur 15.4474 -9.72637 23.8707
rtibia 32.8321
rfoot 5.69369 -29.6058
rtoes 5.906
lfemur -28.2223 -1.55715 -16.3012
ltibia 36.0714
lfoot -4.9259 4.85773
ltoes -11.6971
412
root 1.69965 17.6642 3.41545 -0.175 6.93562 -3.77657
lowerback 4.91477 12.0958 8.3704
upperback -0.0968333 16.582 0.326015
thorax -0.572916 8.25143 -4.66082
lowerneck -11.8611 -8.64873 -3.58396
upperneck 17.0831 -10.94 -0.896773
head 7.34154 -5.52895 -0.789005
rclavicle 1.27421e-013 1.72943e-014
rhumerus 6.87407 -8.42783 -68.5913
rradius 46.7424
rwrist -22.7316
rhand -19.6703 6.55133
rfingers 7.12502
rthumb 6.65811 -23.324
lclavicle 1.27421e-013 1.72943e-014
lhumerus -53.6209 21.2075 28.4541
lradius 48.6192
lwrist 14.2341
lhand -18.8117 0.527164
lfingers 7.12502
lthumb 7.4869 30.3747
rfemur 15.1094 -10.3386 23.5004
rtibia 33.9073
rfoot 7.09801 -30.1141
rtoes 7.12237
lfemur -27.6069 -1.64639 -16.6301
ltibia 36.1325
lfoot -5.22685 5.16196
ltoes -10.994
